<svg viewBox="0 0 100 115" width="50" height="50" fill="none" xmlns="http://www.w3.org/2000/svg"><g clip-path="url(#clip0_491_2)"><path d="M23.7633 16.7865L22.724 16.6272C22.6878 16.6216 22.6526 16.6247 22.6168 16.6216C22.5679 16.6162 22.5188 16.6137 22.4696 16.614C22.2026 16.6151 21.94 16.6824 21.7054 16.8098L15.6391 19.0711L9.26833 21.4459C8.3133 21.8019 8.1023 23.0575 8.88814 23.7057L14.1319 28.0311L19.3756 32.3565C19.576 32.5229 19.8218 32.6256 20.0812 32.6512C20.0985 32.6543 20.1142 32.6616 20.1319 32.6641L30.3347 34.4588L30.9661 34.5101L45.3061 37.3015L49.0086 38.1146C66.9224 42.1623 55.7985 60.3395 55.7985 60.3395C49.6366 72.0742 59.4105 74.0126 59.4105 74.0126L77.0564 77.1801C90.1466 77.4481 87.4479 66.0996 87.4479 66.0996L83.3353 46.997C78.879 30.9551 64.0825 24.3128 64.0825 24.3128L36.6536 19.0598L35.8476 18.9049L33.9218 18.6686" fill="url(#paint0_linear_491_2)"></path><path d="M91.7748 107.19L85.3472 105.489L85.3431 105.461L68.4427 100.988C68.215 100.928 68.0014 100.823 67.814 100.68C67.6267 100.538 67.4693 100.359 67.351 100.156C67.2326 99.9523 67.1555 99.7275 67.1241 99.4941C67.0927 99.2608 67.1076 99.0236 67.1679 98.7961L67.1918 98.7056C67.2521 98.478 67.3567 98.2645 67.4996 98.0774C67.6425 97.8902 67.8209 97.733 68.0246 97.6147C68.2283 97.4964 68.4534 97.4194 68.6869 97.388C68.9204 97.3566 69.1578 97.3715 69.3855 97.4318L84.5547 101.447L84.5541 101.445L84.5575 101.446C84.7853 101.506 85.0227 101.521 85.2562 101.49C85.4897 101.458 85.7147 101.381 85.9184 101.263C86.1221 101.145 86.3005 100.987 86.4434 100.8C86.5863 100.613 86.6909 100.4 86.7512 100.172L86.7751 100.081C86.8355 99.8539 86.8504 99.6167 86.819 99.3834C86.7876 99.1501 86.7105 98.9252 86.5921 98.7217C86.4737 98.5182 86.3164 98.3399 86.129 98.1971C85.9417 98.0544 85.728 97.9499 85.5003 97.8896L82.9025 97.2021L82.9006 97.1989L75.4767 95.2339C75.249 95.1736 75.0353 95.0691 74.848 94.9263C74.6607 94.7836 74.5033 94.6053 74.3849 94.4018C74.2666 94.1982 74.1895 93.9734 74.158 93.7401C74.1266 93.5068 74.1415 93.2695 74.2019 93.042L74.2258 92.9515C74.2861 92.7239 74.3907 92.5105 74.5336 92.3233C74.6765 92.1361 74.8549 91.9789 75.0586 91.8606C75.2623 91.7423 75.4873 91.6653 75.7208 91.6339C75.9543 91.6025 76.1917 91.6174 76.4195 91.6777L79.8082 92.5744L79.7739 92.5367L79.8679 92.5616C80.0957 92.6219 80.3331 92.6367 80.5666 92.6053C80.8001 92.574 81.0251 92.4969 81.2288 92.3786C81.4325 92.2604 81.6109 92.1031 81.7538 91.916C81.8967 91.7288 82.0013 91.5153 82.0616 91.2878L82.0855 91.1973C82.1459 90.9697 82.1608 90.7325 82.1293 90.4992C82.0979 90.2659 82.0208 90.041 81.9025 89.8375C81.7841 89.6339 81.6267 89.4557 81.4394 89.3129C81.2521 89.1701 81.0384 89.0656 80.8107 89.0054L66.8075 85.6248L65.7126 85.3574L51.2427 82.336C33.3289 78.2884 44.4531 60.1111 44.4531 60.1111C50.6151 48.3764 40.8412 46.4381 40.8412 46.4381L23.1953 43.2705C10.105 43.0025 12.8038 54.3511 12.8038 54.3511L16.9163 73.4536C21.3726 89.4955 36.1692 96.1379 36.1692 96.1379L63.2336 103.378C63.366 103.454 63.5094 103.515 63.6638 103.556L90.8321 110.747C91.0598 110.807 91.2972 110.822 91.5307 110.79C91.7642 110.759 91.9893 110.682 92.193 110.564C92.3967 110.445 92.5751 110.288 92.718 110.101C92.8608 109.914 92.9654 109.7 93.0258 109.473L93.0497 109.382C93.1101 109.155 93.125 108.917 93.0936 108.684C93.0622 108.451 92.9851 108.226 92.8668 108.022C92.7484 107.819 92.591 107.64 92.4037 107.497C92.2163 107.355 92.0026 107.25 91.7748 107.19V107.19Z" fill="url(#paint1_linear_491_2)"></path><path d="M31.1352 15.9801L31.2012 15.5782C31.255 15.3139 31.2738 14.9378 31.4455 14.4335C31.5267 14.1869 31.5874 13.8909 31.7141 13.6031C31.8424 13.3159 31.976 12.9998 32.1345 12.6661C32.3223 12.3491 32.5163 12.0028 32.7408 11.6468C32.9977 11.3147 33.2433 10.9373 33.5613 10.5911C33.8877 10.2533 34.2047 9.86998 34.6078 9.54634C34.8031 9.37761 34.9996 9.20166 35.2069 9.03041L35.8748 8.55156L36.2201 8.30805L36.5905 8.09125C36.8415 7.9486 37.0943 7.79903 37.3562 7.65701C37.899 7.41601 38.443 7.1238 39.0414 6.93276C40.2135 6.47967 41.5081 6.195 42.8452 6.05078L43.8578 5.97097C44.1971 5.95558 44.5377 5.9672 44.8808 5.96563L45.3962 5.9694C45.5672 5.97788 45.7377 5.99642 45.9091 6.00993L46.4235 6.05518L46.6814 6.07843L46.8106 6.09037L46.8751 6.09634L46.9075 6.09948L46.9235 6.10105C46.9653 6.10922 46.8525 6.08534 47.0216 6.11928L47.9304 6.26381C48.0845 6.28989 48.2273 6.3078 48.3902 6.34017L48.9248 6.46396C49.2782 6.54974 49.6487 6.63081 49.9896 6.72947L50.9776 7.04902C52.2751 7.51248 53.532 8.11167 54.5581 8.9283C55.0943 9.3088 55.5339 9.77948 55.9745 10.2187C56.1811 10.4519 56.3641 10.6995 56.5537 10.9348L56.8251 11.293L57.06 11.6685C57.2126 11.9117 57.36 12.1582 57.5018 12.4078C57.6264 12.6614 57.738 12.9159 57.8506 13.1622C58.0801 13.6524 58.2131 14.163 58.3468 14.6381C58.4767 15.1154 58.5141 15.5958 58.5798 16.0316C58.5987 16.4803 58.5965 16.9026 58.5836 17.2919C58.543 17.6856 58.4764 18.0491 58.4201 18.3775C58.3587 18.7061 58.2408 19.0027 58.1553 19.2642C58.0672 19.5262 57.9804 19.754 57.8691 19.9457C57.7863 20.1087 57.698 20.2688 57.6043 20.4258C57.5297 20.5563 57.4507 20.6843 57.3672 20.8094C57.2946 20.9147 57.1427 20.9461 57.0279 20.8795C56.9776 20.8512 56.94 20.8048 56.9226 20.7497L56.9157 20.7268C56.9157 20.7268 56.8704 20.5769 56.8031 20.3102C56.7232 20.0424 56.676 19.6641 56.4987 19.2019C56.4125 18.9719 56.3666 18.7228 56.2496 18.4604L55.91 17.6331C55.7521 17.3503 55.6175 17.0524 55.4569 16.7508L55.1776 16.2996C55.0779 16.1491 55.0113 15.9873 54.8877 15.8396C54.6515 15.5427 54.4764 15.2159 54.1949 14.9231L53.8198 14.4602C53.6716 14.3157 53.5311 14.1658 53.3911 14.0134L53.1795 13.785C53.0996 13.714 53.0163 13.6452 52.9392 13.5717L52.4723 13.1274C52.1182 12.8606 51.8191 12.5376 51.4411 12.273C50.7468 11.6855 49.9597 11.1321 49.0996 10.6099L48.4311 10.2414C48.2097 10.1292 47.9952 10.0469 47.7738 9.94287L47.4418 9.79048C47.3109 9.74461 47.154 9.70282 47.0113 9.65851L46.1339 9.39709L45.4276 9.25067C45.2959 9.22396 45.1641 9.19192 45.0314 9.16929L44.6311 9.12153C44.3638 9.09263 44.0958 9.04832 43.8276 9.02884L43.022 8.99868C41.954 9.00213 40.8776 9.05932 39.8713 9.29435C39.3547 9.37573 38.883 9.55483 38.3962 9.68491L37.7084 9.95198L37.3666 10.0821L37.0455 10.2382L36.4113 10.5468L35.8301 10.8984C35.4323 11.1164 35.1128 11.397 34.7735 11.6412C34.4455 11.8954 34.1742 12.1788 33.8842 12.4289C33.6279 12.7016 33.3968 12.9734 33.1682 13.2254L32.6216 13.9911C32.4484 14.229 32.3462 14.4621 32.2201 14.6689C31.9644 15.0711 31.8465 15.4651 31.7377 15.7058L31.582 16.0863C31.537 16.1959 31.4037 16.2515 31.2839 16.2107C31.1786 16.1746 31.1191 16.0771 31.1352 15.9801V15.9801Z" fill="url(#paint2_linear_491_2)"></path><path d="M62.7598 23.9539C62.7598 23.9539 73.329 37.8541 57.074 57.8506L55.4517 60.2813C55.4517 60.2813 50.8542 68.4183 55.6447 72.044C55.6447 72.044 57.6859 74.5397 74.3847 76.824C74.3847 76.824 89.8724 79.404 88.2344 68.9789L83.9891 49.2598C83.9894 49.2601 81.1457 28.5096 62.7598 23.9539V23.9539Z" fill="url(#paint3_linear_491_2)"></path><path d="M37.4919 96.4967C37.4919 96.4967 26.9227 82.5965 43.1777 62.6L44.8 60.1693C44.8 60.1693 49.3975 52.0322 44.607 48.4066C44.607 48.4066 42.5658 45.9108 25.867 43.6266C25.867 43.6266 10.3793 41.0466 12.0173 51.4717L16.2626 71.1907C16.2623 71.1904 19.106 91.941 37.4919 96.4967V96.4967Z" fill="url(#paint4_linear_491_2)"></path><path d="M89.8894 95.0796L84.5227 93.6591C84.3889 93.6237 84.2634 93.5623 84.1534 93.4785C84.0434 93.3946 83.9509 93.2899 83.8814 93.1704C83.8119 93.0508 83.7666 92.9188 83.7482 92.7817C83.7297 92.6447 83.7385 92.5054 83.7739 92.3717L84.1771 90.8507C84.2125 90.717 84.2739 90.5916 84.3578 90.4817C84.4417 90.3717 84.5465 90.2794 84.6662 90.2099C84.7858 90.1404 84.918 90.0952 85.0551 90.0768C85.1923 90.0583 85.3317 90.0671 85.4655 90.1025L90.8321 91.5231C90.9659 91.5585 91.0914 91.6198 91.2014 91.7037C91.3115 91.7875 91.4039 91.8922 91.4734 92.0117C91.5429 92.1313 91.5882 92.2633 91.6067 92.4004C91.6251 92.5374 91.6163 92.6767 91.5809 92.8104L91.1777 94.3315C91.1423 94.4651 91.0809 94.5905 90.997 94.7004C90.9131 94.8104 90.8083 94.9027 90.6887 94.9722C90.569 95.0417 90.4368 95.0869 90.2997 95.1054C90.1626 95.1238 90.0231 95.115 89.8894 95.0796Z" fill="url(#paint5_linear_491_2)"></path></g><defs><linearGradient id="paint0_linear_491_2" x1="8.4067" y1="46.8999" x2="87.6778" y2="46.8999" gradientUnits="userSpaceOnUse"><stop stop-color="#2B9EF8"></stop><stop offset="1" stop-color="#7536C3"></stop></linearGradient><linearGradient id="paint1_linear_491_2" x1="160.599" y1="35.5803" x2="8.12376" y2="95.9227" gradientUnits="userSpaceOnUse"><stop stop-color="#2B9EF8"></stop><stop offset="1" stop-color="#7536C3"></stop></linearGradient><linearGradient id="paint2_linear_491_2" x1="74.1163" y1="10.3953" x2="7.01996" y2="18.9978" gradientUnits="userSpaceOnUse"><stop stop-color="#2B9EF8"></stop><stop offset="1" stop-color="#7536C3"></stop></linearGradient><linearGradient id="paint3_linear_491_2" x1="101.045" y1="62.8814" x2="52.8601" y2="45.8932" gradientUnits="userSpaceOnUse"><stop stop-color="#2B9EF8"></stop><stop offset="1" stop-color="#7536C3"></stop></linearGradient><linearGradient id="paint4_linear_491_2" x1="3.82394" y1="57.5522" x2="48.5009" y2="75.4377" gradientUnits="userSpaceOnUse"><stop stop-color="#2B9EF8"></stop><stop offset="1" stop-color="#7536C3"></stop></linearGradient><linearGradient id="paint5_linear_491_2" x1="98.8507" y1="105.983" x2="79.118" y2="95.8058" gradientUnits="userSpaceOnUse"><stop stop-color="#2B9EF8"></stop><stop offset="1" stop-color="#7536C3"></stop></linearGradient><clipPath id="clip0_491_2"><rect width="100" height="115" fill="white"></rect></clipPath></defs></svg>